<?xml version="1.0" standalone="no"?>
<!DOCTYPE svg PUBLIC "-//W3C//DTD SVG 20010904//EN"
 "http://www.w3.org/TR/2001/REC-SVG-20010904/DTD/svg10.dtd">
<svg version="1.0" xmlns="http://www.w3.org/2000/svg"
 width="512.000000pt" height="512.000000pt" viewBox="0 0 512.000000 512.000000"
 preserveAspectRatio="xMidYMid meet">
<metadata>
Created by potrace 1.11, written by Peter Selinger 2001-2013
</metadata>
<g transform="translate(0.000000,512.000000) scale(0.100000,-0.100000)"
fill="#000000" stroke="none">
<path d="M0 2560 l0 -2560 2560 0 2560 0 0 2560 0 2560 -2560 0 -2560 0 0
-2560z m2956 1850 c321 -22 572 -104 767 -251 297 -224 387 -708 199 -1074
-38 -74 -63 -107 -146 -190 -109 -108 -192 -162 -344 -223 -114 -46 -290 -89
-422 -104 -61 -7 -110 -15 -110 -18 0 -3 145 -48 323 -99 177 -52 327 -99 333
-105 6 -6 115 -261 243 -566 128 -305 244 -575 258 -599 14 -24 92 -113 174
-198 82 -85 149 -159 149 -164 0 -5 -247 -9 -595 -9 -565 0 -595 1 -604 18 -7
14 -333 841 -638 1620 -13 33 -60 42 -218 42 l-155 0 0 -630 c0 -513 3 -637
14 -663 8 -19 86 -99 194 -197 99 -91 181 -171 181 -177 1 -10 -175 -13 -848
-13 -468 0 -852 3 -854 8 -3 4 74 81 171 172 96 91 183 178 194 195 17 29 18
89 18 1429 l0 1398 -21 37 c-12 20 -98 107 -190 195 -93 87 -169 162 -169 167
0 12 1917 11 2096 -1z"/>
<path d="M2186 4288 c-14 -20 -16 -118 -16 -856 l0 -834 208 4 c226 5 265 13
374 80 211 130 314 505 268 969 -30 297 -137 511 -298 597 -96 51 -156 62
-349 62 -166 0 -172 -1 -187 -22z"/>
</g>
</svg>
