<svg width="106" height="39" viewBox="0 0 106 39" fill="none" xmlns="http://www.w3.org/2000/svg">
<path d="M35.756 0H2.244C1.00467 0 0 1.00386 0 2.24218V36.7578C0 37.9961 1.00467 39 2.244 39H35.756C36.9953 39 38 37.9961 38 36.7578V2.24218C38 1.00386 36.9953 0 35.756 0Z" fill="#0C1624"/>
<path d="M16.6032 11.9668C16.6073 13.0743 16.2829 14.1581 15.6712 15.0809C15.0595 16.0037 14.1879 16.7239 13.1669 17.1504C12.1459 17.5769 11.0215 17.6904 9.93597 17.4766C8.85049 17.2627 7.85283 16.7311 7.06939 15.9492C6.28595 15.1672 5.75199 14.1701 5.53515 13.0841C5.31831 11.998 5.42836 10.872 5.85134 9.84868C6.27432 8.82533 6.9912 7.95068 7.91117 7.33556C8.83114 6.72043 9.91279 6.3925 11.0191 6.39331C12.4972 6.39331 13.9151 6.97998 14.9618 8.02475C16.0085 9.06951 16.5988 10.4871 16.6032 11.9668Z" fill="#53BDEB"/>
<path d="M26.9847 32.6062C30.071 32.6062 32.573 30.1016 32.573 27.012C32.573 23.9224 30.071 21.4177 26.9847 21.4177C23.8984 21.4177 21.3965 23.9224 21.3965 27.012C21.3965 30.1016 23.8984 32.6062 26.9847 32.6062Z" fill="#53BDEB"/>
<path d="M26.3613 6.43406C25.1483 6.58346 24.0179 7.13125 23.1449 7.99274C22.2719 8.85423 21.7049 9.98143 21.5317 11.2001C21.4675 11.658 21.4606 12.1222 21.5111 12.5819C21.5809 13.1789 21.5114 13.7841 21.3082 14.3493C21.105 14.9146 20.7737 15.4242 20.3407 15.8378L15.2851 20.6328C14.8478 21.0351 14.322 21.3274 13.751 21.4856C13.1799 21.6438 12.5797 21.6635 11.9996 21.543C11.3884 21.4288 10.7627 21.4162 10.1475 21.5057C9.13703 21.658 8.18806 22.0887 7.40546 22.7503C6.62286 23.412 6.03712 24.2787 5.71298 25.2547C5.38884 26.2308 5.33893 27.2781 5.56877 28.2809C5.7986 29.2837 6.29923 30.203 7.01532 30.9371C7.7314 31.6712 8.63505 32.1915 9.62636 32.4406C10.6177 32.6896 11.658 32.6577 12.6324 32.3483C13.6068 32.0388 14.4773 31.464 15.1477 30.6873C15.8181 29.9107 16.2622 28.9624 16.4309 27.9473C16.5069 27.5006 16.5262 27.046 16.4884 26.5945C16.4408 26.0198 16.5216 25.4416 16.7248 24.9025C16.9281 24.3634 17.2487 23.8771 17.663 23.4792L22.9732 18.4442C23.4011 18.0482 23.9135 17.7564 24.4711 17.5915C25.0286 17.4265 25.6163 17.3927 26.1888 17.4927C26.7843 17.5828 27.3903 17.5758 27.9835 17.472C29.4063 17.2214 30.6756 16.4211 31.5211 15.2415C32.3666 14.0619 32.7214 12.5963 32.5099 11.157C32.2983 9.71772 31.5372 8.41855 30.3887 7.53633C29.2402 6.65412 27.7951 6.2586 26.3613 6.43406Z" fill="white"/>
<g clip-path="url(#clip0_2023_7)">
<g opacity="0.7">
<path d="M55.3101 4.363C55.3832 4.40087 55.4449 4.45792 55.4888 4.52823C55.5328 4.59854 55.5574 4.67953 55.5601 4.76279C55.5574 4.85622 55.5331 4.9477 55.4891 5.02979L54.2946 7.31304C54.2639 7.38855 54.2128 7.4537 54.1472 7.50095C54.0816 7.54819 54.0042 7.57562 53.9239 7.58005C53.8263 7.57921 53.7311 7.54963 53.6498 7.49489C53.1261 7.18616 52.5349 7.01502 51.9298 6.99697C51.3937 6.99999 50.8703 7.16256 50.4242 7.46459C49.9201 7.80465 49.5177 8.27896 49.261 8.83569C48.9518 9.5096 48.8006 10.2472 48.8193 10.9905V17.9341C48.8193 18.2573 48.6602 18.4204 48.3406 18.4204H45.6335C45.3153 18.4204 45.1562 18.2573 45.1562 17.9341V4.25476C45.1562 3.9305 45.3153 3.76837 45.6335 3.76837H47.7242C47.8449 3.75926 47.9649 3.79298 48.0639 3.86378C48.1628 3.93458 48.2345 4.03808 48.2668 4.15661L48.7326 5.54071C49.1457 4.92872 49.6864 4.41673 50.3163 4.04115C50.9693 3.68102 51.704 3.50136 52.4468 3.52013C53.4575 3.54066 54.4451 3.83137 55.3101 4.363Z" fill="#0C1624"/>
</g>
<g opacity="0.7">
<path d="M66.2559 4.23451H68.1918C68.4929 4.23451 68.6435 4.38894 68.6435 4.69491V17.6612C68.6435 17.9672 68.4929 18.1202 68.1918 18.1202H66.1877C66.0729 18.1252 65.9599 18.0903 65.8672 18.0213C65.7745 17.9523 65.7077 17.8533 65.6778 17.7406L65.4875 17.0897C64.4933 18.1563 63.198 18.4204 61.681 18.4204C60.4442 18.4313 59.2282 18.0968 58.1658 17.4534C57.1081 16.8208 56.2351 15.9137 55.6362 14.8252C55.0175 13.7195 54.6971 12.4673 54.7073 11.1954C54.6987 9.93936 55.0146 8.70302 55.6235 7.60992C56.2324 6.51682 57.1129 5.60523 58.1771 4.96624C59.2372 4.32771 60.4487 3.99536 61.681 4.00503C63.2207 4.00503 64.4852 4.53807 65.4747 5.60417M63.5999 14.5524C64.1497 14.2327 64.6023 13.7653 64.908 13.2015C65.2308 12.6026 65.3948 11.9287 65.3838 11.2459C65.3936 10.5578 65.2298 9.87855 64.908 9.27296C64.6051 8.69849 64.1551 8.21781 63.6056 7.88165C63.048 7.5427 62.4089 7.36735 61.7592 7.37506C61.1134 7.36641 60.4781 7.54191 59.9255 7.88165C59.3837 8.21782 58.9419 8.69721 58.6472 9.26863C58.3324 9.87643 58.1727 10.5548 58.1828 11.2416C58.172 11.9241 58.3298 12.5984 58.6416 13.203C58.9315 13.7651 59.371 14.2331 59.9099 14.5539C60.4647 14.8807 61.0966 15.0479 61.7379 15.0374C62.3924 15.0476 63.0375 14.8786 63.6056 14.5481L63.5999 14.5524Z" fill="#0C1624"/>
</g>
<g opacity="0.7">
<path d="M80.5178 4.34135H83.2292C83.5474 4.34135 83.7079 4.49433 83.7079 4.80031V17.732C83.7079 18.038 83.5474 18.191 83.2292 18.191H81.1385C81.0198 18.1997 80.9017 18.1668 80.804 18.0977C80.7062 18.0286 80.6348 17.9275 80.6016 17.8114L80.1826 16.5846C79.5845 17.1564 78.8826 17.6044 78.1161 17.9037C77.3442 18.2345 76.5165 18.41 75.6788 18.4204C74.6095 18.444 73.5528 18.1828 72.6137 17.6627C71.7424 17.1665 71.0326 16.4226 70.5713 15.5223C70.0941 14.6035 69.8555 13.5306 69.8555 12.3039V4.79886C69.8555 4.49289 70.015 4.3399 70.3341 4.3399H73.0455C73.3637 4.3399 73.5227 4.49289 73.5227 4.79886V11.9257C73.5108 12.5197 73.6399 13.1078 73.8991 13.6403C74.137 14.1197 74.5091 14.5169 74.9686 14.782C75.4616 15.0583 76.0178 15.1972 76.5807 15.1846C77.1866 15.1898 77.7842 15.0409 78.3192 14.7516C78.8297 14.483 79.2635 14.0854 79.579 13.597C79.88 13.1396 80.0402 12.6015 80.0392 12.0513V4.80031C80.0392 4.49433 80.1997 4.34135 80.5178 4.34135Z" fill="#0C1624"/>
</g>
<path d="M64.7788 25.0696C65.5647 25.5737 66.1717 26.3262 66.5997 27.3268C67.0277 28.3275 67.2421 29.5552 67.2431 31.0101V38.5049C67.2431 38.835 67.0807 39 66.7559 39H63.2051C63.1395 39.0068 63.0732 38.9986 63.0111 38.9761C62.9489 38.9536 62.8925 38.9174 62.8459 38.87C62.7992 38.8226 62.7636 38.7652 62.7414 38.7021C62.7193 38.639 62.7113 38.5716 62.7179 38.5049V31.1443C62.7179 30.3572 62.5475 29.7443 62.2066 29.3056C61.8657 28.8668 61.3672 28.6469 60.711 28.646C60.3064 28.6378 59.9081 28.7481 59.5634 28.9635C59.2328 29.174 58.9579 29.4633 58.7623 29.8064C58.5633 30.1515 58.4371 30.5348 58.3916 30.9321V38.4977C58.3983 38.5644 58.3903 38.6318 58.3681 38.6949C58.346 38.758 58.3103 38.8154 58.2637 38.8628C58.2171 38.9102 58.1606 38.9464 58.0985 38.9689C58.0364 38.9914 57.9701 38.9995 57.9045 38.9928H54.3537C54.0279 38.9928 53.8655 38.8278 53.8665 38.4977V31.1371C53.8665 30.35 53.696 29.7371 53.3552 29.2983C53.0143 28.8596 52.5158 28.6397 51.8596 28.6388C51.4214 28.6307 50.9917 28.7625 50.631 29.0155C50.2762 29.2645 49.9922 29.604 49.8072 29.9998C49.6173 30.3982 49.5201 30.8358 49.5231 31.2785V38.4948C49.5298 38.5615 49.5218 38.6289 49.4996 38.692C49.4775 38.7551 49.4418 38.8125 49.3952 38.8599C49.3486 38.9073 49.2921 38.9435 49.23 38.966C49.1679 38.9885 49.1016 38.9967 49.036 38.9899H45.4852C45.4197 38.994 45.3542 38.9846 45.2924 38.9623C45.2307 38.94 45.174 38.9052 45.1258 38.86C45.0814 38.811 45.0471 38.7535 45.0252 38.6907C45.0032 38.6279 44.994 38.5613 44.998 38.4948V25.1764C44.998 24.8545 45.1613 24.6929 45.4852 24.6929H48.1838C48.3036 24.6878 48.4225 24.7162 48.5275 24.7751C48.6261 24.8425 48.7043 24.9365 48.7533 25.0465L49.124 25.5762C50.2983 24.7388 51.702 24.298 53.1364 24.3162C53.9459 24.3022 54.7484 24.4712 55.4857 24.8112C56.1851 25.1447 56.7879 25.6563 57.2355 26.2963C58.5337 24.9762 60.1225 24.3162 62.0021 24.3162C62.9796 24.2915 63.9435 24.553 64.7788 25.0696Z" fill="#0C1624"/>
<path d="M72.4314 37.9926C71.3315 37.3463 70.4241 36.4098 69.8052 35.2822C69.1773 34.1475 68.8518 32.866 68.8607 31.5643C68.8484 30.262 69.1575 28.9773 69.7598 27.8277C70.3515 26.6822 71.2449 25.7264 72.3401 25.0668C73.4353 24.4073 74.6894 24.07 75.9623 24.0925C77.4622 24.0925 78.7556 24.4105 79.8426 25.0465C80.9075 25.6607 81.7721 26.5784 82.3296 27.6862C82.9186 28.8812 83.2134 30.2035 83.1889 31.5398C83.1908 31.9019 83.1714 32.2639 83.1307 32.6237C83.1317 32.69 83.1188 32.7559 83.0928 32.8168C83.0668 32.8778 83.0283 32.9324 82.98 32.977C82.9316 33.0217 82.8744 33.0553 82.8122 33.0758C82.7501 33.0962 82.6843 33.103 82.6194 33.0956H73.5165C73.7658 33.6674 74.183 34.1468 74.711 34.4681C75.2422 34.7825 75.8477 34.9437 76.4623 34.9343C76.8612 34.9407 77.2584 34.8808 77.6383 34.7568C78.0043 34.6287 78.3531 34.4547 78.6765 34.2387C78.7652 34.1646 78.8757 34.123 78.9904 34.1203C79.0621 34.1249 79.1314 34.1479 79.192 34.187C79.2526 34.2261 79.3025 34.2801 79.337 34.344L81.0187 36.773C81.0847 36.8611 81.1215 36.9683 81.1238 37.079C81.1235 37.1534 81.1053 37.2266 81.0709 37.2922C81.0365 37.3578 80.9869 37.414 80.9263 37.4557C79.5843 38.4736 77.9508 39.0161 76.2762 39C74.9285 39.0238 73.5997 38.6757 72.4314 37.9926ZM77.7136 28.4324C77.2283 28.1404 76.6747 27.9864 76.1107 27.9864C75.5468 27.9864 74.9932 28.1404 74.5079 28.4324C74.035 28.7565 73.6723 29.2213 73.4696 29.7631H78.7248C78.5382 29.2201 78.1834 28.7532 77.7136 28.4324Z" fill="#0C1624"/>
<path d="M88.8793 39H85.3654C85.2998 39.0067 85.2335 38.9986 85.1714 38.9761C85.1093 38.9536 85.0528 38.9174 85.0062 38.87C84.9596 38.8226 84.9239 38.7652 84.9017 38.7021C84.8796 38.639 84.8716 38.5716 84.8782 38.5049V21.0717C84.8716 21.005 84.8796 20.9377 84.9017 20.8745C84.9239 20.8114 84.9596 20.754 85.0062 20.7067C85.0528 20.6593 85.1093 20.623 85.1714 20.6005C85.2335 20.578 85.2998 20.5699 85.3654 20.5766H88.8793C89.1974 20.5766 89.3551 20.7426 89.3551 21.0717V38.5049C89.3551 38.8354 89.1974 39 88.8793 39Z" fill="#0C1624"/>
<g opacity="0.7">
<path d="M88.8793 18.4205H85.3654C85.2998 18.4272 85.2335 18.4191 85.1714 18.3966C85.1093 18.3741 85.0528 18.3378 85.0062 18.2905C84.9596 18.2431 84.9239 18.1857 84.9017 18.1226C84.8796 18.0594 84.8716 17.9921 84.8782 17.9254V0.495064C84.8742 0.428585 84.8835 0.361962 84.9054 0.299209C84.9274 0.236455 84.9616 0.178869 85.0061 0.129917C85.0543 0.0847495 85.1109 0.0499564 85.1727 0.027633C85.2344 0.00530958 85.3 -0.0040823 85.3654 2.29526e-05H88.8793C89.1974 2.29526e-05 89.3551 0.165999 89.3551 0.495064V17.9254C89.3551 18.2545 89.1974 18.4205 88.8793 18.4205Z" fill="#0C1624"/>
</g>
<path d="M94.6047 38.0041C93.4815 37.3645 92.544 36.4357 91.8862 35.311C91.2243 34.1862 90.8803 32.8978 90.8919 31.5874C90.8793 30.2588 91.2262 28.9522 91.8947 27.8103C92.554 26.6764 93.4961 25.7395 94.626 25.0941C95.7928 24.4371 97.1049 24.0925 98.4388 24.0925C99.7728 24.0925 101.085 24.4371 102.252 25.0941C103.384 25.7394 104.33 26.6762 104.994 27.8103C105.666 28.9512 106.015 30.2581 106.003 31.5874C106.013 32.9006 105.661 34.1906 104.987 35.311C104.315 36.4386 103.363 37.3672 102.228 38.0041C101.057 38.6702 99.7345 39.0135 98.3927 39C97.0657 39.0131 95.7589 38.6696 94.6047 38.0041ZM99.9806 34.2156C100.438 33.9556 100.817 33.5745 101.077 33.1129C101.339 32.6333 101.476 32.0939 101.476 31.5455C101.476 30.9971 101.339 30.4577 101.077 29.9781C100.816 29.5169 100.437 29.1363 99.9806 28.8769C99.5088 28.6136 98.9792 28.4756 98.441 28.4756C97.9027 28.4756 97.3731 28.6136 96.9013 28.8769C96.4471 29.1374 96.0707 29.5179 95.8119 29.9781C95.5493 30.4574 95.4114 30.9969 95.4114 31.5455C95.4114 32.0941 95.5493 32.6336 95.8119 33.1129C96.0706 33.5735 96.447 33.9545 96.9013 34.2156C97.3735 34.4778 97.9029 34.6153 98.441 34.6153C98.979 34.6153 99.5084 34.4778 99.9806 34.2156Z" fill="#0C1624"/>
</g>
<defs>
<clipPath id="clip0_2023_7">
<rect width="61" height="39" fill="white" transform="translate(45)"/>
</clipPath>
</defs>
</svg>
